<svg id="Layer_1" data-name="Layer 1" xmlns="http://www.w3.org/2000/svg" viewBox="0 0 288 47.5"><defs><style>.cls-1{fill:#fff;}.cls-2{fill:#eb1c2d;}</style></defs><title>CFC-Logo</title><rect x="43.96" y="4.41" width="37.36" height="39.03"/><rect x="83.69" y="4.41" width="37.36" height="39.03"/><rect x="123.42" y="4.41" width="37.36" height="39.03"/><rect x="163.15" y="4.41" width="37.36" height="39.03"/><rect x="4.23" y="4.41" width="37.36" height="39.03"/><path class="cls-1" d="M23.75,37.63c-7.75,0-11.88-5.73-11.88-13.46,0-8.4,4.91-13.46,11.92-13.46,6.4,0,8.94,2.76,10.73,7.67L28,21c-.93-2.43-1.83-4-4.21-4-3,0-4.33,3-4.33,7.17s1.27,7.17,4.4,7.17c2.27,0,3.24-1.23,4.66-3.7l6.11,3.26C32.84,34.32,29.93,37.63,23.75,37.63Z"/><path class="cls-1" d="M64.75,26.74H60.43L60.92,25c.93-3.31,1.34-4.76,1.68-6.51.33,1.75.74,3.16,1.67,6.51Zm11,10.33L66.28,11H59L49.52,37.07h7.74l1.42-4.62H66.5l1.42,4.62Z"/><path class="cls-1" d="M106.3,19.65c0,1.87-.94,2.91-3.29,2.91H98.76V16.85h4.36C105.4,16.85,106.3,18,106.3,19.65ZM114,37.05l-5.22-10c2.87-1.3,4.7-3.71,4.7-7.63,0-6.18-4.06-8.49-10.18-8.49H91.65V37.05h7.11V28.24h2.91l4.25,8.81Z"/><path class="cls-1" d="M139.09,17.11v3.64h8.15v6.1h-8.15v10.2H131.9V11h20.64v6.14Z"/><path class="cls-1" d="M184,26.71h-4.32l.48-1.71c.93-3.31,1.34-4.76,1.68-6.52.33,1.76.74,3.17,1.67,6.52ZM195,37,185.52,11h-7.3L168.76,37h7.75l1.41-4.61h7.83L187.16,37Z"/><path class="cls-1" d="M221.55,36.75a46.78,46.78,0,0,1-2.93,4.31l-.34.46h6.14l-.3-.46C223.1,39.43,222.25,38.16,221.55,36.75Z"/><path class="cls-1" d="M217.07,31.41l-9-12.83h9.18l1.59,2.52a44.18,44.18,0,0,1,2.73,4.75c.65-1.37,1.76-3.12,2.77-4.75l1.6-2.52h9l-9,12.68,7.53,10.26h4.9V6.3l-33.48,0V41.52h4.62Z"/><path d="M202.87,4.41v39h37.36V43h0V4.41Zm15.41,37.11.34-.46a46.78,46.78,0,0,0,2.93-4.31c.7,1.41,1.55,2.68,2.57,4.31l.3.46Zm20,0h-4.9l-7.53-10.26,9-12.68h-9l-1.6,2.52c-1,1.63-2.12,3.38-2.77,4.75a44.18,44.18,0,0,0-2.73-4.75l-1.59-2.52h-9.18l9,12.83-7.63,10.11h-4.62V6.34l33.48,0Z"/><polyline class="cls-2" points="262.46 43.46 265.25 43.46 265.25 43.4 265.25 38.82 274.66 39.88 274.2 35.99 284.04 28.65 282.07 25.96 284.04 19.7 277.7 20.3 276.04 17.23 269.91 23.01 272.12 10.2 268.04 12.62 263.87 4.42 263.85 4.39 259.68 12.59 255.6 10.17 257.81 22.98 251.68 17.2 250.02 20.28 243.67 19.68 245.65 25.93 243.67 28.63 253.52 35.96 253.06 39.86 262.46 38.79 262.46 43.46"/></svg>